<?xml version="1.0" encoding="utf-8"?>
<!-- Generator: Adobe Illustrator 19.0.0, SVG Export Plug-In . SVG Version: 6.00 Build 0)  -->
<svg version="1.1" id="Capa_1" xmlns="http://www.w3.org/2000/svg" xmlns:xlink="http://www.w3.org/1999/xlink" x="0px" y="0px"
	 viewBox="0 0 85 85" style="enable-background:new 0 0 85 85;" xml:space="preserve">
<style type="text/css">
	.st0{fill:#FFFFFF;}
</style>
<g id="XMLID_3_">
	<path id="XMLID_37_" class="st0" d="M22,32.2c4.3,2.7,14.4,3.3,22.8-3.4c0,0-2.5-3.4-8.2-0.2c-3.1,1.7-8.5,2.8-11.6,0.3
		c-3.1-2.5-4-6.5-7.7-6.5c-1.5,0-2.4,1.3-2.4,1.3C18.6,25.2,17.6,29.5,22,32.2z"/>
	<path id="XMLID_26_" class="st0" d="M42.3,39.9c-0.5,0.9-0.1,2,0.9,2.4l0,0c0.8,0.3,1.7,0,2.1-0.7c1.7-3,4.6-4.9,6.3-5.9
		c0.2-0.1,0.3-0.2,0.4-0.3c-0.9-0.8-1.8-1.6-2.6-2.3C47.2,34.3,44.2,36.5,42.3,39.9z"/>
	<path id="XMLID_30_" class="st0" d="M50.5,43.2c-0.6,0.9-0.2,2.1,0.8,2.5c0.7,0.3,1.6,0,2-0.6c0.9-1.4,3.5-3.6,4.7-4.4
		c-0.9-0.7-1.8-1.5-2.6-2.2C53.8,39.6,51.5,41.6,50.5,43.2z"/>
	<path id="XMLID_34_" class="st0" d="M61.4,43.4c-0.9,0.7-2.4,2-2.6,2.3c-0.8,0.9-0.4,2.2,0.7,2.7l0,0c0.6,0.3,1.4,0.1,1.8-0.4
		c0.2-0.2,2.6-2.3,2.8-2.4c0,0,0.1-0.1,0.1-0.1C63.3,44.8,62.4,44.1,61.4,43.4z"/>
	<path id="XMLID_22_" class="st0" d="M81.5,54.4c-1-3.9-4.6-6.7-8.8-6.7h-4.1v5.8c0,0-19.2,3.7-23.9,3.7c-4.7,0-7.5-3.7-12.3-3.7
		s-7.9,3.3-12.1,3.3c-4.2,0-6.5-1.8-6.5-3.3c0-1.5,0.4-3.1,0.9-6.8c0.5-3.6-2.9-6.9-6.7-7.1c-2.3,8.7-3.3,17.2-3.4,18.8
		C4.8,59.3,5.6,60,6.6,60h18.7c2.4,0,4.4-1.9,7.1-1.9c2.7,0,4.2,1.9,6.4,1.9h41.1c1.1,0,1.9-0.9,1.9-1.9v-2.6
		C81.8,55,81.7,54.7,81.5,54.4z"/>
</g>
</svg>
